<?xml version="1.0" encoding="UTF-8" standalone="no"?>
<svg
   xmlns:dc="http://purl.org/dc/elements/1.1/"
   xmlns:cc="http://creativecommons.org/ns#"
   xmlns:rdf="http://www.w3.org/1999/02/22-rdf-syntax-ns#"
   xmlns:svg="http://www.w3.org/2000/svg"
   xmlns="http://www.w3.org/2000/svg"
   xmlns:sodipodi="http://sodipodi.sourceforge.net/DTD/sodipodi-0.dtd"
   xmlns:inkscape="http://www.inkscape.org/namespaces/inkscape"
   version="1.1"
   x="0px"
   y="0px"
   viewBox="0 0 100 125"
   id="svg10"
   sodipodi:docname="noun_Hospital_1406775.svg"
   inkscape:version="0.92.3 (d244b95, 2018-08-02)">
  <metadata
     id="metadata16">
    <rdf:RDF>
      <cc:Work
         rdf:about="">
        <dc:format>image/svg+xml</dc:format>
        <dc:type
           rdf:resource="http://purl.org/dc/dcmitype/StillImage" />
      </cc:Work>
    </rdf:RDF>
  </metadata>
  <defs
     id="defs14" />
  <sodipodi:namedview
     pagecolor="#ffffff"
     bordercolor="#666666"
     borderopacity="1"
     objecttolerance="10"
     gridtolerance="10"
     guidetolerance="10"
     inkscape:pageopacity="0"
     inkscape:pageshadow="2"
     inkscape:window-width="1366"
     inkscape:window-height="715"
     id="namedview12"
     showgrid="false"
     inkscape:zoom="1.888"
     inkscape:cx="50"
     inkscape:cy="62.5"
     inkscape:window-x="0"
     inkscape:window-y="0"
     inkscape:window-maximized="1"
     inkscape:current-layer="svg10" />
  <g
     transform="translate(0,-952.36218)"
     id="g4"
     style="fill:#aa0000">
    <path
       style="text-indent:0;text-transform:none;direction:ltr;block-progression:tb;baseline-shift:baseline;color:#000000;enable-background:accumulate;fill:#aa0000"
       d="m 49.875,963.62786 c -14.1783,0.0683 -25.625,11.55538 -25.625,25.75 0,4.738 1.3007,9.15581 3.5312,12.96874 a 2.1042889,2.1042889 0 0 1 0.063,0.1563 l 0.031,0.031 a 2.1042889,2.1042889 0 0 1 0.062,0.1562 l 22.1875,38.4063 22.0625,-38.6875 a 2.1042889,2.1042889 0 0 1 0.094,-0.1875 c 2.1886,-3.7868 3.4688,-8.15457 3.4688,-12.84379 0,-14.2387 -11.5129,-25.75 -25.75,-25.75 a 2.1042889,2.1042889 0 0 1 -0.125,0 z M 50,972.47161 c 8.9014,0 16.0625,7.16113 16.0625,16.0625 0,8.90136 -7.1611,16.06249 -16.0625,16.06249 -8.9013,0 -16.0625,-7.16113 -16.0625,-16.06249 0,-8.90137 7.1612,-16.0625 16.0625,-16.0625 z m -2.7812,5.90625 c -0.1704,0 -0.2878,0.11669 -0.3438,0.1875 -0.057,0.0708 -0.075,0.1279 -0.094,0.1875 -0.041,0.12031 -0.062,0.20872 -0.062,0.34375 l 0,6.1875 -6.125,0 c -0.1351,0 -0.2858,0.0214 -0.4063,0.0625 -0.06,0.0205 -0.1165,0.006 -0.1875,0.0625 -0.071,0.0559 -0.1875,0.20511 -0.1875,0.375 l 0,5.5625 c 0,0.16998 0.1165,0.28695 0.1875,0.34375 0.071,0.0568 0.1275,0.0723 0.1875,0.0937 0.1204,0.041 0.2712,0.0625 0.4063,0.0625 l 6.125,0 0,6.125 c 0,0.13502 0.021,0.25469 0.062,0.375 0.02,0.0596 0.038,0.14785 0.094,0.21875 0.057,0.0709 0.1737,0.15625 0.3438,0.15625 l 5.5624,0 c 0.1702,0 0.2878,-0.0855 0.3438,-0.15625 0.056,-0.0708 0.073,-0.15915 0.094,-0.21875 0.041,-0.12031 0.062,-0.23998 0.062,-0.375 l 0,-6.125 6.1563,0 c 0.1349,0 0.2546,-0.0243 0.375,-0.0625 0.06,-0.0196 0.1155,-0.0399 0.1875,-0.0937 0.072,-0.054 0.1875,-0.16213 0.1875,-0.34375 l 0,-5.5625 c 0,-0.18172 -0.1155,-0.3209 -0.1875,-0.375 -0.072,-0.0545 -0.1275,-0.0421 -0.1875,-0.0625 -0.1204,-0.0391 -0.2401,-0.0625 -0.375,-0.0625 l -6.1563,0 0,-6.1875 c 0,-0.13503 -0.021,-0.22344 -0.062,-0.34375 -0.021,-0.0596 -0.038,-0.1167 -0.094,-0.1875 -0.056,-0.0708 -0.1739,-0.1875 -0.3438,-0.1875 l -5.5624,0 z"
       fill="#000000"
       fill-opacity="1"
       stroke="none"
       marker="none"
       visibility="visible"
       display="inline"
       overflow="visible"
       id="path2" />
  </g>
</svg>
