<?xml version="1.0" encoding="UTF-8" standalone="no"?>
<svg
   xmlns:dc="http://purl.org/dc/elements/1.1/"
   xmlns:cc="http://creativecommons.org/ns#"
   xmlns:rdf="http://www.w3.org/1999/02/22-rdf-syntax-ns#"
   xmlns:svg="http://www.w3.org/2000/svg"
   xmlns="http://www.w3.org/2000/svg"
   xmlns:sodipodi="http://sodipodi.sourceforge.net/DTD/sodipodi-0.dtd"
   xmlns:inkscape="http://www.inkscape.org/namespaces/inkscape"
   version="1.1"
   x="0px"
   y="0px"
   viewBox="0 0 100 125"
   enable-background="new 0 0 100 100"
   xml:space="preserve"
   id="svg12"
   sodipodi:docname="noun_Location_318324.svg"
   inkscape:version="0.92.3 (d244b95, 2018-08-02)"><metadata
     id="metadata18"><rdf:RDF><cc:Work
         rdf:about=""><dc:format>image/svg+xml</dc:format><dc:type
           rdf:resource="http://purl.org/dc/dcmitype/StillImage" /></cc:Work></rdf:RDF></metadata><defs
     id="defs16" /><sodipodi:namedview
     pagecolor="#ffffff"
     bordercolor="#666666"
     borderopacity="1"
     objecttolerance="10"
     gridtolerance="10"
     guidetolerance="10"
     inkscape:pageopacity="0"
     inkscape:pageshadow="2"
     inkscape:window-width="1366"
     inkscape:window-height="715"
     id="namedview14"
     showgrid="false"
     inkscape:zoom="1.888"
     inkscape:cx="-37.923729"
     inkscape:cy="62.5"
     inkscape:window-x="0"
     inkscape:window-y="0"
     inkscape:window-maximized="1"
     inkscape:current-layer="svg12" /><path
     d="M57.974,12.974C57.974,8.577,54.396,5,49.999,5c-4.396,0-7.974,3.577-7.974,7.974c0,4.397,3.577,7.975,7.974,7.975  C54.396,20.948,57.974,17.371,57.974,12.974z M44.928,12.974c0-2.796,2.274-5.07,5.07-5.07c2.797,0,5.072,2.274,5.072,5.07  s-2.274,5.071-5.072,5.071C47.203,18.045,44.928,15.77,44.928,12.974z"
     id="path2"
     style="fill:#1396ad;fill-opacity:1" /><path
     d="M35.429,34.625c0,0,1.112,17.101,1.127,17.305c0,2.137,1.737,3.875,3.873,3.875c0.337,0,0.663-0.04,0.971-0.116  c1.639,20.132,1.966,23.851,2.054,24.624l-0.007,0.001c0.222,2.207,2.064,3.872,4.284,3.872c0.819,0,1.599-0.227,2.269-0.645  c0.67,0.418,1.45,0.645,2.269,0.645c2.223,0,4.064-1.665,4.284-3.873l-0.005-0.001c0.084-0.758,0.409-4.45,2.052-24.623  c0.31,0.076,0.635,0.116,0.971,0.116c2.136,0,3.873-1.738,3.87-3.792c0.019-0.287,1.132-17.388,1.135-17.482  c0-7.834-5.828-13.135-14.575-13.192c-0.02,0-0.053,0.001-0.087,0.002C41.248,21.4,35.426,26.699,35.429,34.625z M49.936,24.237  c0.04,0.004,0.08,0.006,0.12,0.006c7.056,0.045,11.616,4.083,11.619,10.192C60.54,51.86,60.54,51.862,60.54,51.93  c0,0.536-0.435,0.972-0.97,0.972c-0.421,0-0.691-0.184-0.825-0.562c-0.228-0.645-0.883-1.047-1.555-0.954  c-0.68,0.088-1.204,0.639-1.26,1.321c-0.854,10.5-2.155,26.347-2.257,27.243c-0.003,0.024-0.007,0.049-0.009,0.073  c-0.072,0.719-0.672,1.259-1.396,1.259c-0.438,0-0.845-0.202-1.111-0.555c-0.274-0.362-0.703-0.575-1.158-0.575  c-0.455,0-0.883,0.214-1.157,0.575c-0.267,0.353-0.671,0.555-1.111,0.555c-0.724,0-1.323-0.541-1.395-1.26  c-0.003-0.025-0.006-0.05-0.01-0.075c-0.104-0.911-1.402-16.749-2.256-27.24c-0.056-0.682-0.58-1.232-1.259-1.321  c-0.678-0.097-1.327,0.308-1.556,0.953c-0.134,0.378-0.404,0.563-0.827,0.563c-0.534,0-0.969-0.436-0.969-0.972  c0-0.067,0-0.069-1.13-17.399C38.33,28.327,42.889,24.288,49.936,24.237z"
     id="path4"
     style="fill:#1396ad;fill-opacity:1" /><path
     d="M29.409,74.452c-1.321,0.946-2.382,1.987-3.154,3.091c-1,1.43-1.506,2.946-1.506,4.509C24.75,89.313,35.841,95,50,95  c14.16,0,25.251-5.688,25.251-12.948c0-1.562-0.507-3.078-1.506-4.508c-0.771-1.104-1.832-2.145-3.154-3.092  c-1.061-0.759-2.293-1.462-3.666-2.088c-1.194-0.544-2.497-1.03-3.873-1.445c-0.764-0.233-1.577,0.201-1.809,0.97  c-0.232,0.768,0.202,1.577,0.97,1.809c1.251,0.378,2.433,0.818,3.508,1.308c1.201,0.55,2.271,1.157,3.181,1.809  c1.053,0.754,1.882,1.559,2.464,2.393c0.651,0.933,0.982,1.891,0.982,2.846c0,5.445-10.233,10.045-22.348,10.045  c-12.113,0-22.347-4.6-22.347-10.045c0-0.955,0.33-1.913,0.982-2.846c0.583-0.834,1.412-1.639,2.464-2.393  c0.911-0.652,1.98-1.26,3.18-1.808c1.079-0.491,2.26-0.931,3.51-1.308c0.768-0.232,1.202-1.042,0.97-1.81  c-0.231-0.768-1.043-1.198-1.809-0.971c-1.374,0.415-2.677,0.901-3.875,1.447C31.705,72.989,30.472,73.691,29.409,74.452z"
     id="path6"
     style="fill:#1396ad;fill-opacity:1" /></svg>